<?xml version="1.0" standalone="no"?>
<!DOCTYPE svg PUBLIC "-//W3C//DTD SVG 20010904//EN"
 "http://www.w3.org/TR/2001/REC-SVG-20010904/DTD/svg10.dtd">
<svg version="1.0" xmlns="http://www.w3.org/2000/svg"
 width="4986.000000pt" height="2290.000000pt" viewBox="0 0 4986.000000 2290.000000"
 preserveAspectRatio="xMidYMid meet">
<metadata>
Created by potrace 1.16, written by Peter Selinger 2001-2019
</metadata>
<g transform="translate(0.000000,2290.000000) scale(0.100000,-0.100000)"
fill="#000000" stroke="none">
<path d="M24710 22169 c-1406 -361 -2641 -953 -3834 -1838 -536 -398 -948
-755 -1503 -1305 l-203 -201 0 -2324 0 -2325 178 264 c413 617 820 1156 1341
1779 l196 234 3 -2983 c2 -2639 4 -2985 17 -2993 13 -7 15 -440 15 -3782 l0
-3775 -57 0 c-32 0 -148 7 -258 15 -446 32 -860 82 -1278 155 -126 22 -230 40
-233 40 -2 0 -4 -650 -4 -1445 0 -795 3 -1445 8 -1445 4 0 117 -16 252 -35
442 -62 892 -104 1400 -130 369 -19 1188 -19 1515 0 917 54 1755 203 2698 481
16 5 17 84 17 1475 0 808 -2 1469 -3 1469 -2 0 -90 -29 -194 -64 -645 -218
-1264 -363 -1908 -446 -88 -11 -172 -23 -187 -26 l-28 -6 0 3776 c0 3769 0
3776 -20 3776 -20 0 -20 7 -20 3780 l0 3780 103 76 c56 42 179 127 272 189
580 385 1109 651 1755 885 l185 67 3 1466 c2 1393 1 1467 -15 1467 -10 0 -106
-23 -213 -51z"/>
</g>
</svg>
